# File created by Blade
# Date/Time:  Tue Sep 30 19:07:19 2014
#---------------------------------------------------------
:version 1.10
:name HOM
:units
  mass 1.0
  length 1.000000
  angle deg
:documentation
     Acclaim Skeleton File
:root
   axis xyz
   order TX TY TZ RX RY RZ
   position 0.000000 0.000000 0.000000
   orientation 0 0 0
:bonedata
   begin
      id 1
      name Spine_dum
      direction 0.000000 1.000000 0.000000
      length 7.508948
      axis 0.0 0.0 0.0 xyz
   end
   begin
      id 2
      name LeftUpLeg_dum
      direction 1.000000 0.000000 0.000000
      length 3.000560
      axis 0.0 0.0 0.0 xyz
   end
   begin
      id 3
      name RightUpLeg_dum
      direction -1.000000 0.000000 0.000000
      length 3.000560
      axis 0.0 0.0 0.0 xyz
   end
   begin
      id 4
      name Spine
      direction 0.000000 1.000000 0.000000
      length 0.000000
      axis 0.0 0.0 0.0 xyz
      dof rx ry rz
   end
   begin
      id 5
      name Spine_dum1
      direction 0.000000 1.000000 0.000000
      length 13.861154
      axis 0.0 0.0 0.0 xyz
   end
   begin
      id 6
      name Spine_dum2
      direction 0.000000 1.000000 0.000000
      length 8.204781
      axis 0.0 0.0 0.0 xyz
   end
   begin
      id 7
      name Spine_dum3
      direction 0.000000 1.000000 0.000000
      length 8.204781
      axis 0.0 0.0 0.0 xyz
   end
   begin
      id 8
      name Head
      direction 0.000000 1.000000 0.000000
      length 4.527550
      axis 0.0 0.0 0.0 xyz
      dof rx ry rz
   end
   begin
      id 9
      name LeftShoulder
      direction 1.000000 0.000000 0.000000
      length 6.635956
      axis 0.0 0.0 -90.0 xyz
      dof rx ry rz
   end
   begin
      id 10
      name LeftArm
      direction 1.000000 0.000000 0.000000
      length 10.274218
      axis 0.0 0.0 -90.0 xyz
      dof rx ry rz
   end
   begin
      id 11
      name LeftForeArm
      direction 1.000000 0.000000 0.000000
      length 8.522147
      axis 0.0 0.0 -90.0 xyz
      dof ry rz rx
   end
   begin
      id 12
      name LeftHand
      direction 0.000000 0.000000 0.000000
      length 0.000000
      axis 0.0 0.0 -90.0 xyz
      dof rx ry rz
   end
   begin
      id 13
      name LeftHand_dum1
      direction 0.000000 0.000000 0.000000
      length 0.000000
      axis 0.0 0.0 -90.0 xyz
   end
   begin
      id 14
      name LeftHand_dum2
      direction 1.000000 0.000000 0.000000
      length 3.937000
      axis 0.0 0.0 -90.0 xyz
   end
   begin
      id 15
      name LeftHandThumb1
      direction 0.000000 0.000000 1.000000
      length 3.937000
      axis 0.0 0.0 -90.0 xyz
      dof rx rz ry
   end
   begin
      id 16
      name RightShoulder
      direction -1.000000 0.000000 0.000000
      length 6.635956
      axis 0.0 0.0 90.0 xyz
      dof rx ry rz
   end
   begin
      id 17
      name RightArm
      direction -1.000000 0.000000 0.000000
      length 10.274218
      axis 0.0 0.0 90.0 xyz
      dof rx ry rz
   end
   begin
      id 18
      name RightForeArm
      direction -1.000000 0.000000 0.000000
      length 8.522147
      axis 0.0 0.0 90.0 xyz
      dof ry rz rx
   end
   begin
      id 19
      name RightHand
      direction 0.000000 0.000000 0.000000
      length 0.000000
      axis 0.0 0.0 90.0 xyz
      dof rx ry rz
   end
   begin
      id 20
      name RightHand_dum1
      direction 0.000000 0.000000 0.000000
      length 0.000000
      axis 0.0 0.0 90.0 xyz
   end
   begin
      id 21
      name RightHand_dum2
      direction -1.000000 0.000000 0.000000
      length 3.937000
      axis 0.0 0.0 90.0 xyz
   end
   begin
      id 22
      name RightHandThumb1
      direction 0.000000 0.000000 1.000000
      length 3.937000
      axis 0.0 0.0 90.0 xyz
      dof rx rz ry
   end
   begin
      id 23
      name LeftUpLeg
      direction 0.000000 -1.000000 0.000000
      length 16.490845
      axis 0.0 0.0 0.0 xyz
      dof rx ry rz
   end
   begin
      id 24
      name LeftLeg
      direction 0.000000 -1.000000 0.000000
      length 14.556576
      axis 0.0 0.0 0.0 xyz
      dof rx ry rz
   end
   begin
      id 25
      name LeftFoot
      direction 0.000000 -0.258819 0.965926
      length 4.831116
      axis 15.0 0.0 0.0 xyz
      dof rx ry rz
   end
   begin
      id 26
      name LeftToeBase
      direction 0.000000 0.000000 1.000000
      length 2.952750
      axis 0.0 0.0 0.0 xyz
      dof rx ry rz
   end
   begin
      id 27
      name RightUpLeg
      direction 0.000000 -1.000000 0.000000
      length 16.490845
      axis 0.0 0.0 0.0 xyz
      dof rx ry rz
   end
   begin
      id 28
      name RightLeg
      direction 0.000000 -1.000000 0.000000
      length 14.556576
      axis 0.0 0.0 0.0 xyz
      dof rx ry rz
   end
   begin
      id 29
      name RightFoot
      direction 0.000000 -0.258819 0.965926
      length 4.831116
      axis 15.0 0.0 0.0 xyz
      dof rx ry rz
   end
   begin
      id 30
      name RightToeBase
      direction 0.000000 0.000000 1.000000
      length 2.952750
      axis 0.0 0.0 0.0 xyz
      dof rx ry rz
   end
:hierarchy
   begin
      root Spine_dum LeftUpLeg_dum RightUpLeg_dum
      Spine_dum Spine
      LeftUpLeg_dum LeftUpLeg
      RightUpLeg_dum RightUpLeg
      Spine Spine_dum1 Spine_dum2 Spine_dum3
      Spine_dum1 Head
      Spine_dum2 LeftShoulder
      Spine_dum3 RightShoulder
      LeftShoulder LeftArm
      LeftArm LeftForeArm
      LeftForeArm LeftHand
      LeftHand LeftHand_dum1 LeftHand_dum2
      LeftHand_dum1 LeftHandThumb1
      RightShoulder RightArm
      RightArm RightForeArm
      RightForeArm RightHand
      RightHand RightHand_dum1 RightHand_dum2
      RightHand_dum1 RightHandThumb1
      LeftUpLeg LeftLeg
      LeftLeg LeftFoot
      LeftFoot LeftToeBase
      RightUpLeg RightLeg
      RightLeg RightFoot
      RightFoot RightToeBase
   end

# File created by Blade
# Date/Time:  Thu Sep 25 19:32:06 2014
# Frame Rate: 120.000 fps
#------------------------------------------------------
:FULLY-SPECIFIED
:DEGREES
350
root -11.057158 32.190096 -6.945773 3.034536 7.753695 2.582125
Spine -10.713843 0.632564 -43.506722
Head -2.247056 8.332987 -33.920777
LeftShoulder -7.848294 25.463468 7.976068
LeftArm 13.947628 29.208661 -53.463685
LeftForeArm 15.478511 -0.000000 9.369522
LeftHand -28.940569 -0.000000 0.304305
LeftHandThumb1 -26.253704 0.000000 33.147579
RightShoulder -20.571906 25.642860 -55.696450
RightArm 35.748233 41.766171 24.150814
RightForeArm 30.150130 -0.000000 33.875820
RightHand 6.024601 -0.000000 2.612650
RightHandThumb1 -24.326973 -0.000000 -32.862282
LeftUpLeg 12.682746 -5.565021 -7.299382
LeftLeg -3.364701 -0.000000 0.000000
LeftFoot -15.600236 6.282356 -11.648295
LeftToeBase 3.799471 -0.000000 -0.000000
RightUpLeg -3.633095 -8.396813 15.631679
RightLeg 13.077895 -0.000000 -0.000000
RightFoot -9.612952 -1.080726 -2.771491
RightToeBase -9.994526 -0.000000 0.000000
351
root -11.052127 32.191645 -6.936925 2.972758 7.734462 2.536234
Spine -10.736455 0.609936 -43.524585
Head -2.300573 8.502007 -34.078112
LeftShoulder -7.814368 25.511924 7.981050
LeftArm 13.906140 29.457927 -53.523487
LeftForeArm 15.568011 -0.000000 9.291396
LeftHand -28.920980 -0.000000 0.178880
LeftHandThumb1 -26.253704 0.000000 33.147579
RightShoulder -20.650760 25.907786 -55.909921
RightArm 36.012550 41.679477 24.521636
RightForeArm 30.045779 -0.000000 33.936291
RightHand 6.092863 -0.000000 2.633638
RightHandThumb1 -24.326973 -0.000000 -32.862282
LeftUpLeg 12.757465 -5.555935 -7.272132
LeftLeg -3.371130 -0.000000 0.000000
LeftFoot -15.713306 6.250185 -11.866518
LeftToeBase 4.235027 -0.000000 -0.000000
RightUpLeg -3.558634 -8.461844 15.648788
RightLeg 13.076355 -0.000000 -0.000000
RightFoot -9.587427 -0.984207 -2.751662
RightToeBase -10.000332 -0.000000 0.000000
352
root -11.046351 32.192942 -6.929155 2.919868 7.711589 2.493924
Spine -10.766953 0.592470 -43.548003
Head -2.373414 8.705304 -34.194973
LeftShoulder -7.753326 25.502905 7.995134
LeftArm 13.789394 29.828487 -53.591514
LeftForeArm 15.616336 0.000000 9.263461
LeftHand -29.015173 0.000000 0.107227
LeftHandThumb1 -26.253704 0.000000 33.147579
RightShoulder -20.689841 26.023650 -55.994672
RightArm 36.358224 41.704600 24.807360
RightForeArm 30.103525 -0.000000 33.953259
RightHand 6.148187 -0.000000 2.699107
RightHandThumb1 -24.326973 -0.000000 -32.862282
LeftUpLeg 12.824407 -5.530723 -7.248047
LeftLeg -3.383625 -0.000000 0.000000
LeftFoot -15.714479 6.245584 -11.883274
LeftToeBase 4.206164 -0.000000 -0.000000
RightUpLeg -3.487138 -8.491917 15.663498
RightLeg 13.061067 -0.000000 -0.000000
RightFoot -9.555610 -0.923678 -2.750328
RightToeBase -10.083701 -0.000000 0.000000
353
root -11.039251 32.194523 -6.922145 2.890037 7.684590 2.454719
Spine -10.815557 0.567530 -43.572604
Head -2.454129 8.882499 -34.321900
LeftShoulder -7.716889 25.520995 7.984248
LeftArm 13.702119 30.119268 -53.648518
LeftForeArm 15.750866 0.000000 9.248767
LeftHand -29.086574 -0.000000 0.232183
LeftHandThumb1 -26.253704 0.000000 33.147579
RightShoulder -20.603433 25.825420 -55.850423
RightArm 36.780497 42.026885 24.963959
RightForeArm 30.116473 -0.000000 33.970525
RightHand 6.110500 -0.000000 2.761479
RightHandThumb1 -24.326973 -0.000000 -32.862282
LeftUpLeg 12.869962 -5.512967 -7.228338
LeftLeg -3.398098 -0.000000 0.000000
LeftFoot -15.678522 6.270472 -11.844451
LeftToeBase 4.040469 -0.000000 -0.000000
RightUpLeg -3.436426 -8.491286 15.680266
RightLeg 13.042613 -0.000000 -0.000000
RightFoot -9.520580 -0.906908 -2.769534
RightToeBase -10.182466 -0.000000 0.000000
354
root -11.032814 32.194984 -6.915495 2.840092 7.664903 2.400543
Spine -10.837350 0.609641 -43.585761
Head -2.487389 8.961541 -34.448923
LeftShoulder -7.631039 25.546331 7.975788
LeftArm 13.664392 30.427965 -53.667282
LeftForeArm 15.911263 -0.000000 9.221791
LeftHand -29.072464 -0.000000 0.229068
LeftHandThumb1 -26.253704 0.000000 33.147579
RightShoulder -20.678302 25.835412 -55.914358
RightArm 37.173846 42.138145 25.275927
RightForeArm 30.031915 -0.000000 33.985271
RightHand 6.111436 -0.000000 2.918628
RightHandThumb1 -24.326973 -0.000000 -32.862282
LeftUpLeg 12.936200 -5.506315 -7.195203
LeftLeg -3.418845 -0.000000 0.000000
LeftFoot -15.678016 6.304269 -11.804572
LeftToeBase 4.042916 -0.000000 -0.000000
RightUpLeg -3.369285 -8.496175 15.713094
RightLeg 13.021108 -0.000000 -0.000000
RightFoot -9.500724 -0.894612 -2.768061
RightToeBase -10.176049 -0.000000 0.000000
355
root -11.025774 32.196651 -6.910234 2.800387 7.650722 2.358898
Spine -10.862114 0.617943 -43.620269
Head -2.523536 9.068238 -34.531534
LeftShoulder -7.571668 25.553943 7.972503
LeftArm 13.616726 30.709450 -53.706145
LeftForeArm 16.104072 0.000000 9.190815
LeftHand -28.960100 -0.000000 0.108263
LeftHandThumb1 -26.253704 0.000000 33.147579
RightShoulder -20.715343 25.855028 -55.946648
RightArm 37.422210 42.165131 25.415817
RightForeArm 30.011257 -0.000000 34.045442
RightHand 6.139931 -0.000000 2.831868
RightHandThumb1 -24.326973 -0.000000 -32.862282
LeftUpLeg 12.982111 -5.512535 -7.178141
LeftLeg -3.422439 -0.000000 0.000000
LeftFoot -15.577297 6.387543 -11.588755
LeftToeBase 3.644374 -0.000000 -0.000000
RightUpLeg -3.317643 -8.500979 15.733006
RightLeg 13.012518 -0.000000 -0.000000
RightFoot -9.485925 -0.886917 -2.751873
RightToeBase -10.224317 -0.000000 0.000000
356
root -11.019664 32.198473 -6.904247 2.754905 7.651617 2.308510
Spine -10.866844 0.606156 -43.646341
Head -2.599597 9.217792 -34.597007
LeftShoulder -7.528970 25.529776 7.970176
LeftArm 13.536281 30.972569 -53.773693
LeftForeArm 16.213290 -0.000000 9.170167
LeftHand -29.107057 -0.000000 0.162696
LeftHandThumb1 -26.253704 0.000000 33.147579
RightShoulder -20.719274 25.885953 -55.955167
RightArm 37.589412 42.177873 25.450944
RightForeArm 30.084812 -0.000000 34.119992
RightHand 6.164544 -0.000000 2.771982
RightHandThumb1 -24.326973 -0.000000 -32.862282
LeftUpLeg 13.037495 -5.562320 -7.151901
LeftLeg -3.427256 -0.000000 0.000000
LeftFoot -15.683242 6.391310 -11.799482
LeftToeBase 4.034021 -0.000000 -0.000000
RightUpLeg -3.261379 -8.527471 15.765596
RightLeg 12.998144 -0.000000 -0.000000
RightFoot -9.494294 -0.869996 -2.802934
RightToeBase -10.093706 -0.000000 0.000000
357
root -11.011763 32.199728 -6.900114 2.724997 7.664291 2.265379
Spine -10.887158 0.602160 -43.670231
Head -2.622386 9.322407 -34.671875
LeftShoulder -7.451888 25.523175 7.962050
LeftArm 13.468605 31.280622 -53.820291
LeftForeArm 16.320736 -0.000000 9.170172
LeftHand -29.118559 -0.000000 0.131423
LeftHandThumb1 -26.253704 0.000000 33.147579
RightShoulder -20.754797 25.848953 -55.958456
RightArm 37.908568 42.288317 25.647800
RightForeArm 30.005452 -0.000000 34.160289
RightHand 6.112009 0.000000 2.933697
RightHandThumb1 -24.326973 -0.000000 -32.862282
LeftUpLeg 13.062813 -5.605357 -7.134929
LeftLeg -3.408802 -0.000000 0.000000
LeftFoot -15.715817 6.436770 -11.832731
LeftToeBase 4.065739 -0.000000 -0.000000
RightUpLeg -3.223502 -8.558568 15.786716
RightLeg 12.979523 -0.000000 -0.000000
RightFoot -9.441828 -0.850357 -2.737436
RightToeBase -10.272630 -0.000000 0.000000
358
root -11.002963 32.202521 -6.897528 2.703547 7.688008 2.220004
Spine -10.889464 0.603577 -43.686026
Head -2.685561 9.407914 -34.781483
LeftShoulder -7.382922 25.475826 7.918233
LeftArm 13.398262 31.600762 -53.835072
LeftForeArm 16.475382 0.000000 9.162148
LeftHand -29.249896 0.000000 0.219778
LeftHandThumb1 -26.253704 0.000000 33.147579
RightShoulder -20.904245 25.995138 -56.132322
RightArm 38.110580 42.152880 25.850499
RightForeArm 29.858969 -0.000000 34.215680
RightHand 6.068099 0.000000 2.938764
RightHandThumb1 -24.326973 -0.000000 -32.862282
LeftUpLeg 13.076075 -5.677889 -7.117109
LeftLeg -3.388003 -0.000000 0.000000
LeftFoot -15.724578 6.495754 -11.824466
LeftToeBase 3.995997 -0.000000 -0.000000
RightUpLeg -3.203680 -8.586244 15.810529
RightLeg 12.974745 -0.000000 -0.000000
RightFoot -9.426768 -0.838100 -2.706637
RightToeBase -10.247192 -0.000000 0.000000
359
root -10.992417 32.203928 -6.893085 2.678663 7.723609 2.202533
Spine -10.879699 0.584946 -43.747194
Head -2.735190 9.536973 -34.817228
LeftShoulder -7.343101 25.456774 7.932668
LeftArm 13.384922 31.910632 -53.882083
LeftForeArm 16.596430 -0.000000 9.115668
LeftHand -29.292103 -0.000000 0.375951
LeftHandThumb1 -26.253704 0.000000 33.147579
RightShoulder -20.906977 25.977451 -56.100392
RightArm 38.239808 42.171471 25.788599
RightForeArm 29.889160 -0.000000 34.245638
RightHand 6.113080 -0.000000 2.997529
RightHandThumb1 -24.326973 -0.000000 -32.862282
LeftUpLeg 13.089193 -5.697633 -7.116781
LeftLeg -3.344043 -0.000000 0.000000
LeftFoot -15.732584 6.476617 -11.825819
LeftToeBase 4.006758 -0.000000 -0.000000
RightUpLeg -3.171886 -8.623484 15.804187
RightLeg 12.960784 -0.000000 -0.000000
RightFoot -9.418128 -0.806781 -2.714818
RightToeBase -10.294630 -0.000000 0.000000
360
root -10.980450 32.205811 -6.890718 2.642026 7.770897 2.166037
Spine -10.856017 0.561336 -43.759898
Head -2.754973 9.679490 -34.889175
LeftShoulder -7.292091 25.412491 7.903923
LeftArm 13.318631 32.175064 -53.958539
LeftForeArm 16.710864 -0.000000 9.086905
LeftHand -29.333666 -0.000000 0.491707
LeftHandThumb1 -26.253704 0.000000 33.147579
RightShoulder -21.003119 25.927945 -56.066419
RightArm 38.670109 42.234452 25.996138
RightForeArm 29.824299 -0.000000 34.214837
RightHand 6.134279 -0.000000 3.045376
RightHandThumb1 -24.326973 -0.000000 -32.862282
LeftUpLeg 13.113475 -5.701899 -7.097569
LeftLeg -3.320291 -0.000000 0.000000
LeftFoot -15.795899 6.409371 -11.912945
LeftToeBase 4.203533 -0.000000 -0.000000
RightUpLeg -3.140369 -8.678035 15.813132
RightLeg 12.956291 -0.000000 -0.000000
RightFoot -9.415556 -0.778490 -2.693642
RightToeBase -10.281887 -0.000000 0.000000
361
root -10.969745 32.206032 -6.888983 2.629251 7.811115 2.141579
Spine -10.849459 0.538211 -43.816735
Head -2.788834 9.816251 -34.854933
LeftShoulder -7.260612 25.303543 7.931326
LeftArm 13.235115 32.436134 -54.066744
LeftForeArm 16.868573 -0.000000 9.058435
LeftHand -29.635241 -0.000000 0.708269
LeftHandThumb1 -26.253704 0.000000 33.147579
RightShoulder -20.968926 25.975451 -56.129500
RightArm 38.584221 42.265111 25.965497
RightForeArm 29.744803 0.000000 34.364779
RightHand 6.047433 -0.000000 3.068429
RightHandThumb1 -24.326973 -0.000000 -32.862282
LeftUpLeg 13.112465 -5.700505 -7.085017
LeftLeg -3.286473 -0.000000 0.000000
LeftFoot -15.813318 6.380252 -11.919552
LeftToeBase 4.215459 -0.000000 -0.000000
RightUpLeg -3.126816 -8.677952 15.817696
RightLeg 12.943062 -0.000000 -0.000000
RightFoot -9.423179 -0.785916 -2.675506
RightToeBase -10.311199 -0.000000 0.000000
362
root -10.958971 32.206353 -6.888988 2.619313 7.854552 2.106561
Spine -10.848920 0.513104 -43.841916
Head -2.808470 9.883779 -34.907029
LeftShoulder -7.260908 25.263264 7.910883
LeftArm 13.247791 32.642537 -54.102524
LeftForeArm 16.993477 0.000000 9.025712
LeftHand -29.599143 -0.000000 0.518749
LeftHandThumb1 -26.253704 0.000000 33.147579
RightShoulder -20.955003 26.031926 -56.179660
RightArm 38.584886 42.253947 25.943583
RightForeArm 29.740388 -0.000000 34.466748
RightHand 6.050223 -0.000000 2.900684
RightHandThumb1 -24.326973 -0.000000 -32.862282
LeftUpLeg 13.104462 -5.711717 -7.065353
LeftLeg -3.244653 -0.000000 0.000000
LeftFoot -15.676566 6.459693 -11.553643
LeftToeBase 3.615015 -0.000000 -0.000000
RightUpLeg -3.118770 -8.680333 15.833530
RightLeg 12.921925 -0.000000 -0.000000
RightFoot -9.412189 -0.793925 -2.684638
RightToeBase -10.429520 -0.000000 0.000000
